<svg width="100" height="101" viewBox="0 0 100 101" fill="none" xmlns="http://www.w3.org/2000/svg">
<circle cx="50" cy="50.5" r="50" fill="#007000"/>
<path d="M56.8 15.5V34.0294C56.8 37.4406 59.6207 40.2059 63.1 40.2059H82V75.2059C82 78.6169 79.1793 81.3824 75.7 81.3824H55.7199C59.0184 77.4669 61 72.4454 61 66.9706C61 54.4628 50.6578 44.3235 37.9 44.3235C35.716 44.3235 33.6027 44.6207 31.6 45.176V21.6765C31.6 18.2653 34.4206 15.5 37.9 15.5H56.8Z" fill="#F9F9F9"/>
<path d="M61 16.5294V34.0294C61 35.1665 61.9404 36.0882 63.1 36.0882H80.95L61 16.5294Z" fill="#F9F9F9"/>
<path d="M56.8 66.9706C56.8 77.2042 48.3382 85.5 37.9 85.5C27.4618 85.5 19 77.2042 19 66.9706C19 56.737 27.4618 48.4412 37.9 48.4412C48.3382 48.4412 56.8 56.737 56.8 66.9706ZM37.9 56.6765C36.7402 56.6765 35.8 57.5984 35.8 58.7353V66.9706C35.8 68.1075 36.7402 69.0294 37.9 69.0294C39.0598 69.0294 40 68.1075 40 66.9706V58.7353C40 57.5984 39.0598 56.6765 37.9 56.6765ZM37.9 77.7794C39.3498 77.7794 40.525 76.6273 40.525 75.2059C40.525 73.7845 39.3498 72.6324 37.9 72.6324C36.4502 72.6324 35.275 73.7845 35.275 75.2059C35.275 76.6273 36.4502 77.7794 37.9 77.7794Z" fill="#F9F9F9"/>
</svg>
