<svg width="100" height="100" viewBox="0 0 100 100" fill="none" xmlns="http://www.w3.org/2000/svg">
<circle cx="50" cy="50" r="50" fill="#007000"/>
<g clip-path="url(#clip0_96_933)">
<path d="M56.8001 15V33.5294C56.8001 36.9406 59.6208 39.7059 63.1001 39.7059H82.0001V74.7059C82.0001 78.1169 79.1794 80.8824 75.7001 80.8824H55.72C59.0185 76.9669 61.0001 71.9454 61.0001 66.4706C61.0001 53.9628 50.6579 43.8235 37.9001 43.8235C35.7161 43.8235 33.6028 44.1207 31.6001 44.676V21.1765C31.6001 17.7653 34.4207 15 37.9001 15H56.8001Z" fill="#F9F9F9"/>
<path d="M61 16.0294V33.5294C61 34.6665 61.9404 35.5882 63.1 35.5882H80.95L61 16.0294Z" fill="#F9F9F9"/>
<path d="M56.8 66.4706C56.8 76.7042 48.3382 85 37.9 85C27.4618 85 19 76.7042 19 66.4706C19 56.237 27.4618 47.9412 37.9 47.9412C48.3382 47.9412 56.8 56.237 56.8 66.4706Z" fill="#F9F9F9"/>
<path d="M39.9699 70.2952C42.1477 70.3425 44.2581 69.6265 45.8383 68.3031C47.4185 66.9801 48.3397 65.1584 48.3999 63.2371C48.3397 61.3158 47.4185 59.4938 45.8383 58.1708C44.2581 56.8478 42.1477 56.1313 39.9699 56.1787H31.3999C31.1347 56.1787 30.8803 56.2717 30.6928 56.4372C30.5053 56.6028 30.3999 56.8272 30.3999 57.0611V68.5308H28.3999C28.1347 68.5308 27.8803 68.6234 27.6928 68.789C27.5052 68.9545 27.3999 69.1789 27.3999 69.4128C27.3999 69.6471 27.5052 69.8715 27.6928 70.0366C27.8803 70.2021 28.1347 70.2952 28.3999 70.2952H30.3999V72.0596H28.3999C28.1347 72.0596 27.8803 72.1527 27.6928 72.3182C27.5052 72.4837 27.3999 72.7081 27.3999 72.942C27.3999 73.1759 27.5052 73.4003 27.6928 73.5658C27.8803 73.7314 28.1347 73.8244 28.3999 73.8244H30.3999V80.0001C30.3999 80.2344 30.5053 80.4588 30.6928 80.6239C30.8803 80.7894 31.1347 80.8825 31.3999 80.8825C31.6651 80.8825 31.9195 80.7894 32.107 80.6239C32.2945 80.4588 32.3999 80.2344 32.3999 80.0001V73.8244H41.3999C41.6651 73.8244 41.9195 73.7314 42.107 73.5658C42.2945 73.4003 42.3999 73.1759 42.3999 72.942C42.3999 72.7081 42.2945 72.4837 42.107 72.3182C41.9195 72.1527 41.6651 72.0596 41.3999 72.0596H32.3999V70.2952H39.9699ZM32.3999 57.9435H39.9699C41.6167 57.8982 43.217 58.4294 44.4216 59.4209C45.6262 60.4128 46.3373 61.7844 46.3999 63.2371C46.3399 64.6902 45.6295 66.0635 44.4244 67.0558C43.2192 68.0478 41.6174 68.5781 39.9699 68.5308H32.3999V57.9435Z" fill="#007000"/>
</g>
<defs>
<clipPath id="clip0_96_933">
<rect width="63" height="70" fill="white" transform="translate(19 15)"/>
</clipPath>
</defs>
</svg>
