<svg width="100" height="100" viewBox="0 0 100 100" fill="none" xmlns="http://www.w3.org/2000/svg">
<circle cx="50" cy="50" r="50" fill="#007000"/>
<path d="M55.4737 15V35C55.4737 38.6819 58.4426 41.6667 62.1053 41.6667H82V75C82 78.682 79.031 81.6667 75.3684 81.6667H52.7892C56.5056 77.7737 58.7895 72.4883 58.7895 66.6667C58.7895 54.7003 49.1402 45 37.2368 45C34.2994 45 31.4992 45.5907 28.9474 46.6607V21.6667C28.9474 17.9848 31.9164 15 35.5789 15H55.4737ZM60.4474 16.6667V35C60.4474 35.9205 61.1898 36.6667 62.1053 36.6667H80.3421L60.4474 16.6667ZM55.4737 66.6667C55.4737 76.792 47.3088 85 37.2368 85C27.1649 85 19 76.792 19 66.6667C19 56.5413 27.1649 48.3333 37.2368 48.3333C47.3088 48.3333 55.4737 56.5413 55.4737 66.6667ZM48.3565 58.8213C47.7091 58.1707 46.6594 58.1707 46.0119 58.8213L33.9211 70.9763L28.4618 65.488C27.8143 64.8373 26.7646 64.8373 26.1172 65.488C25.4697 66.139 25.4697 67.1943 26.1172 67.8453L32.7488 74.512C33.3962 75.1627 34.4459 75.1627 35.0933 74.512L48.3565 61.1787C49.0039 60.5277 49.0039 59.4723 48.3565 58.8213Z" fill="#F9F9F9"/>
</svg>
